<?xml version="1.0" encoding="UTF-8"?>
<svg width="512" height="512" viewBox="0 0 512 512" xmlns="http://www.w3.org/2000/svg">
    <path d="M24.428 468.832l42.291-51.68c8.439 6.853 16.095 11.702 24.533 11.702 10.607 0 17.352-4.155 17.352-20.249V235.377h52.115v174.793c0 53.941-31.705 78.474-77.865 78.474-41.745 0-65.933-21.586-78.426-47.812m184.905-5.292l42.292-48.907c11.153 18.169 25.624 31.458 51.242 31.458 21.533 0 35.197-10.762 35.197-25.624 0-17.788-14.099-24.096-37.751-34.432l-12.954-5.565c-37.424-15.955-62.285-35.961-62.285-78.253 0-38.952 29.676-68.628 76.027-68.628 33.05 0 56.819 11.526 73.881 41.638l-40.429 45.916c-8.875-15.955-18.442-22.26-33.486-22.26-15.264 0-24.97 9.672-24.97 22.26 0 15.591 9.671 21.914 32.013 31.586l12.954 5.51c44.059 18.933 68.846 38.297 68.846 81.792 0 46.716-36.724 72.34-86.089 72.34-48.251 0-79.411-23.006-94.675-53.177" fill="#000000"/>
</svg> 