<?xml version="1.0" encoding="UTF-8"?>
<svg width="512" height="512" viewBox="0 0 512 512" xmlns="http://www.w3.org/2000/svg">
    <path d="M256 512c-7.363 0-14.726-1.947-21.234-5.617l-67.465-39.875c-10.087-5.617-5.164-7.61-1.832-8.781 13.464-4.617 16.15-5.711 30.488-13.867 1.51-.843 3.463-.281 5.02.75l51.837 30.723c1.832 1.125 4.507 1.125 6.245 0l202.162-116.687c1.832-1.125 3.088-3.281 3.088-5.531V155.885c0-2.344-1.162-4.406-3.088-5.531L259.088 33.76c-1.832-1.125-4.413-1.125-6.245 0L50.775 150.354c-1.926 1.125-3.182 3.281-3.182 5.531v233.375c0 2.25 1.256 4.406 3.182 5.531l55.394 31.966c30.019 15 48.431-2.672 48.431-20.437V175.854c0-3.281 2.6-5.812 5.863-5.812h25.613c3.182 0 5.863 2.531 5.863 5.812v230.466c0 40.031-21.797 62.906-59.713 62.906-11.662 0-20.85 0-46.463-12.656l-52.956-30.535C13.894 416.99 7 403.49 7 389.26V155.885c0-14.23 6.894-27.637 18.244-34.683L227.406 4.515c11.007-6.187 25.613-6.187 36.526 0l202.162 116.687c11.35 7.046 18.244 20.453 18.244 34.683v233.375c0 14.23-6.894 27.637-18.244 34.683L263.932 540.626c-6.508 3.67-13.87 5.617-21.234 5.617" fill="#539E43"/>
    <path d="M302.463 319.885c-88.575 0-107.007-40.687-107.007-74.812 0-3.281 2.6-5.813 5.863-5.813h26.175c2.882 0 5.295 2.156 5.769 5.062 3.932 26.532 15.594 39.844 69.2 39.844 42.581 0 60.731-9.656 60.731-32.25 0-13.031-5.163-22.687-71.313-29.156-55.3-5.437-89.456-17.719-89.456-62.062 0-40.875 34.438-65.25 92.075-65.25 64.756 0 96.8 22.5 100.919 70.781.188 1.594-.469 3.188-1.644 4.313-1.162 1.125-2.788 1.687-4.413 1.687h-26.269c-2.694 0-5.107-1.875-5.675-4.594-6.332-28.031-21.703-37.031-62.918-37.031-46.32 0-51.67 16.125-51.67 28.219 0 14.625 6.332 18.937 69.107 27.187 62.075 8.156 91.662 19.781 91.662 63.656 0 44.157-36.713 69.563-100.919 69.563M512 256c0 141.5-114.5 256-256 256C114.5 512 0 397.5 0 256 0 114.5 114.5 0 256 0c141.5 0 256 114.5 256 256" fill="#539E43"/>
</svg> 