<svg xmlns="http://www.w3.org/2000/svg" viewBox="0 0 512 512">
  <path fill="#95BF47" d="M369.8 138.5c-.3-2.1-2.1-3.3-3.6-3.3s-32.7-.8-32.7-.8-21.7-21.5-24.1-23.9c-2.4-2.4-7.1-1.7-8.9-1.1-.3.1-4.8 1.5-12.2 3.8-7.3-21.1-20.1-40.5-42.7-40.5h-2c-6.4-8.4-14.4-12.2-21.2-12.2-52.7 0-77.9 65.9-85.8 99.5-20.5 6.3-35 10.9-36.8 11.5-11.4 3.6-11.7 3.9-13.2 14.6-1.2 8.1-31.2 240.8-23.3 240.8l233.8 43.8 126.9-27.4s-43.8-297.7-44.1-299.8zM286.1 119l-19.3 6c-5.7-16.6-15.7-32-33.4-32-1 0-1.9.1-2.9.2-4.3-5.6-9.7-8.2-15.9-8.1-39.4.4-58.2 49.4-64.2 74.5-15.4 4.8-26.4 8.2-27.8 8.6-8.6 2.7-8.8 2.9-9.9 10.9-.9 6.1-23.3 180.2-23.3 180.2l175 32.8 94.9-20.5c0 .1-32.8-222.8-33-224.4-1.1-1.1-24.5.8-24.5.8s-14.4-16.1-16.7-17.9z"/>
  <path fill="#5E8E3E" d="M365.8 135.2c-1.5-.1-32.7-.8-32.7-.8s-21.7-21.5-24.1-23.9c-.9-.9-2.1-1.3-3.3-1.4l-17.3 341.7 126.9-27.4s-43.8-297.7-44.1-299.8c-.3-2.1-2.1-3.3-3.6-3.3-.2-.1-.9-.1-1.8-.1z"/>
  <path fill="#FFFFFF" d="M235.4 200.6l-11.8 35.1s-10.4-5.5-23.1-5.5c-18.6 0-19.6 11.7-19.6 14.6 0 16 41.7 22.2 41.7 59.7 0 29.5-18.8 48.5-44.1 48.5-30.4 0-45.9-18.9-45.9-18.9l8.1-26.9s16 13.7 29.5 13.7c8.8 0 12.4-6.9 12.4-12 0-21-34.2-22-34.2-56.6 0-29.1 20.9-57.3 63-57.3 16.2-.1 24 4.6 24 4.6z"/>
</svg> 